<?xml version="1.0" encoding="iso-8859-1"?>
<!-- Generator: Adobe Illustrator 19.0.0, SVG Export Plug-In . SVG Version: 6.00 Build 0)  -->
<svg version="1.1" id="Layer_1" xmlns="http://www.w3.org/2000/svg" xmlns:xlink="http://www.w3.org/1999/xlink" x="0px" y="0px"
	 viewBox="0 0 489.993 489.993" style="enable-background:new 0 0 489.993 489.993;" xml:space="preserve">
<g id="XMLID_785_">
	<g id="XMLID_1187_">
		<rect x="26.797" y="130.154" style="fill:#F7931E;" width="222.028" height="359.839"/>
	</g>
	<g id="XMLID_1186_">
		<rect x="26.797" y="130.154" style="fill:#FBB03B;" width="91.874" height="359.839"/>
	</g>
	<g id="XMLID_1185_">
		<rect x="26.797" y="428.743" style="fill:#E9483D;" width="229.684" height="53.593"/>
	</g>
	<g id="XMLID_1184_">
		<rect x="26.797" y="428.743" style="fill:#ED6D64;" width="91.874" height="53.593"/>
	</g>
	<g id="XMLID_1183_">
		<rect x="34.452" y="130.154" style="fill:#FFFFFF;" width="15.312" height="344.526"/>
	</g>
	<g id="XMLID_1182_">
		<rect x="210.545" y="267.965" style="fill:#E9483D;" width="252.652" height="68.905"/>
	</g>
	<g id="XMLID_1181_">
		<rect x="210.545" y="267.965" style="fill:#ED6D64;" width="114.842" height="68.905"/>
	</g>
	<g id="XMLID_1115_">
		<rect x="218.201" y="336.87" style="fill:#F7931E;" width="252.653" height="145.467"/>
	</g>
	<g id="XMLID_1110_">
		<rect x="218.201" y="336.87" style="fill:#FBB03B;" width="107.186" height="145.467"/>
	</g>
	<g id="XMLID_787_">
		<rect x="218.199" y="275.621" style="fill:#FFFFFF;" width="15.312" height="199.059"/>
	</g>
	<g>
		<rect x="103.357" y="421.088" style="fill:#1D1D1B;" width="30.624" height="15.312"/>
		<rect x="149.294" y="421.088" style="fill:#1D1D1B;" width="30.625" height="15.312"/>
		<rect x="57.42" y="421.088" style="fill:#1D1D1B;" width="30.624" height="15.312"/>
		<path style="fill:#1D1D1B;" d="M401.946,260.309v-30.625c0-33.772-27.477-61.249-61.249-61.249s-61.249,27.477-61.249,61.249
			v30.625h-15.312V114.842h-61.249V61.249C202.887,27.477,175.41,0,141.638,0S80.389,27.477,80.389,61.249v53.593h-61.25v375.151
			h183.747h7.656h260.309V260.309H401.946z M294.76,229.684c0-25.331,20.606-45.937,45.937-45.937
			c25.331,0,45.937,20.606,45.937,45.937v30.625H294.76V229.684z M271.792,298.589v15.312h30.624v-15.312h-7.656V275.62h91.874
			v22.969h-7.656v15.312h30.625v-15.312h-7.656V275.62h53.593v61.249H218.2V275.62h61.249v22.969H271.792z M95.701,61.249
			c0-25.331,20.606-45.937,45.937-45.937s45.937,20.606,45.937,45.937v53.593H95.701V61.249z M34.452,474.68V436.4h7.656v-15.312
			h-7.656V130.154h45.937v22.968h-7.656v15.312h30.625v-15.312h-7.656v-22.968h91.874v22.968h-7.656v15.312h30.625v-15.312h-7.656
			v-22.968h45.937v130.154h-45.937v160.779h-7.656V436.4h7.656v38.281H34.452V474.68z M218.199,474.68V352.182h237.34V474.68
			H218.199z"/>
	</g>
</g>
<g>
</g>
<g>
</g>
<g>
</g>
<g>
</g>
<g>
</g>
<g>
</g>
<g>
</g>
<g>
</g>
<g>
</g>
<g>
</g>
<g>
</g>
<g>
</g>
<g>
</g>
<g>
</g>
<g>
</g>
</svg>
